<?xml version="1.0" encoding="UTF-8"?>
<svg id="Layer_2" data-name="Layer 2" xmlns="http://www.w3.org/2000/svg" viewBox="0 0 158.96 156.89">
  <g id="Layer_3" data-name="Layer 3">
    <ellipse cx="79.48" cy="78.44" rx="77.48" ry="76.44" fill="none" stroke="#fff" stroke-miterlimit="10" stroke-width="4"/>
    <line x1="13.49" y1="118.52" x2="79.48" y2="2" fill="none" stroke="#fff" stroke-miterlimit="10" stroke-width="4"/>
    <line x1="146.6" y1="118.52" x2="79.48" y2="2" fill="none" stroke="#fff" stroke-miterlimit="10" stroke-width="4"/>
    <line x1="14.54" y1="116.67" x2="41.71" y2="116.33" fill="none" stroke="#fff" stroke-miterlimit="10" stroke-width="4"/>
    <line x1="146.6" y1="116.33" x2="117.86" y2="116.33" fill="none" stroke="#fff" stroke-miterlimit="10" stroke-width="4"/>
    <line x1="44.72" y1="146.77" x2="30.46" y2="21.84" fill="none" stroke="#fff" stroke-miterlimit="10" stroke-width="4"/>
    <line x1="154.6" y1="70.1" x2="28.97" y2="21.84" fill="none" stroke="#fff" stroke-miterlimit="10" stroke-width="4"/>
    <line x1="1.56" y1="69.34" x2="128.67" y2="21.19" fill="none" stroke="#fff" stroke-miterlimit="10" stroke-width="4"/>
    <line x1="43.23" y1="133.77" x2="4.02" y2="69.34" fill="none" stroke="#fff" stroke-miterlimit="10" stroke-width="4"/>
    <line x1="129.42" y1="21.84" x2="115.19" y2="144.47" fill="none" stroke="#fff" stroke-miterlimit="10" stroke-width="4"/>
    <path d="M77.6,42.67l5.64-2.15,71.1,27.32.51,6.11-35.72,67.68c-.71.69-1.37,1.19-1.85,1.52-1.01.7-1.7,1.16-2.67,1.22-.56.04-1.11-.07-1.4-.15,4.76-41.2,9.61-82.39,14.36-123.59l3.59,3.47-12.59,109.66,32.91-62.73-73.88-28.36Z" fill="#dd3031"/>
    <path d="M76.59,60.94s-1.24-2.17-1.28-4.17c-.03-1.7,2.3-4.7,3.08-5.53.12-.13,1.1-.18,1.22-.06.75.75,3.02,3.72,3.3,5.44.33,2.04-1.24,4.06-1.24,4.06-.05.31.39.82.53.93.07.06.49.09.88.1,1.18.05,2.54-.06,5.08,0,.17,0,.31.14.31.32v2.71c0,.17-.14.31-.31.31h-5c-.17,0-.31.14-.31.31v47.26c0,.17-.14.31-.31.31h-2.96c-.17,0-.31-.14-.31-.31v-39.65h-.48v39.65c0,.17-.14.31-.31.31h-3.08c-.17,0-.31-.14-.31-.31v-47.33c0-.17-.14-.31-.31-.31h-5.78c-.17,0-.31-.14-.31-.31v-2.52c0-.17.14-.31.31-.31h6.59c.23.02.75-.2.86-.38.1-.16.17-.47.17-.53Z" fill="#ebe8dc"/>
    <rect x="67.19" y="114.12" width="23.7" height="2.55" rx=".47" ry=".47" fill="#ebe8dc"/>
    <g>
      <path d="M54.75,74.27c-.99-.34-1.24-2.97-.44-4.93.83-2.06,2.98-3.77,3.93-3.29.92.46.68,2.97,0,4.67-.74,1.87-2.47,3.91-3.48,3.56Z" fill="#ebe8dc"/>
      <path d="M52.08,80.41c-.62-.84.65-3.15,2.41-4.32,1.85-1.23,4.59-1.43,5.1-.51.5.9-1.12,2.83-2.63,3.85-1.67,1.12-4.24,1.83-4.88.97Z" fill="#ebe8dc"/>
      <path d="M52.64,79.31c-.99.34-2.8-1.58-3.38-3.62-.6-2.14.04-4.81,1.08-5.01,1.01-.2,2.36,1.93,2.86,3.68.56,1.93.44,4.6-.57,4.94Z" fill="#ebe8dc"/>
      <path d="M51.54,88.02c-.8-.68-.09-3.22,1.35-4.76,1.52-1.62,4.13-2.45,4.85-1.67.69.76-.43,3.02-1.67,4.36-1.36,1.48-3.71,2.76-4.52,2.07Z" fill="#ebe8dc"/>
      <path d="M51.51,86.99c-.85.62-3.15-.68-4.3-2.45-1.21-1.86-1.39-4.6-.46-5.1.9-.49,2.82,1.14,3.83,2.67,1.11,1.68,1.79,4.26.93,4.89Z" fill="#ebe8dc"/>
      <path d="M53.46,94.64c-.45.94-3.09.89-4.95-.13-1.95-1.07-3.4-3.4-2.82-4.28.56-.86,3.03-.33,4.64.54,1.77.95,3.59,2.91,3.13,3.87Z" fill="#ebe8dc"/>
      <path d="M56.26,101.57c-.17,1.03-2.71,1.73-4.78,1.28-2.17-.47-4.22-2.29-3.92-3.3.3-.98,2.81-1.18,4.6-.8,1.97.41,4.27,1.77,4.1,2.82Z" fill="#ebe8dc"/>
      <path d="M60.54,107.44c-.09,1.04-2.57,1.94-4.66,1.66-2.2-.29-4.39-1.95-4.17-2.98.22-1,2.71-1.4,4.52-1.16,1.99.25,4.4,1.42,4.31,2.48Z" fill="#ebe8dc"/>
      <path d="M59.98,108.27c-1.04-.07-1.98-2.53-1.74-4.63.26-2.21,1.87-4.43,2.91-4.22,1.01.2,1.44,2.68,1.24,4.5-.22,2-1.35,4.42-2.41,4.35Z" fill="#ebe8dc"/>
      <path d="M54.46,102.73c-.96-.41-1.04-3.04-.12-4.95.97-2,3.22-3.57,4.13-3.03.89.52.48,3.01-.31,4.66-.86,1.82-2.72,3.73-3.71,3.32Z" fill="#ebe8dc"/>
      <path d="M52.33,95.4c-.86-.6-.38-3.2.92-4.86,1.37-1.75,3.9-2.81,4.68-2.1.76.69-.16,3.04-1.27,4.49-1.23,1.59-3.45,3.08-4.32,2.47Z" fill="#ebe8dc"/>
      <path d="M55.05,72.27c-3.51,8.23-3.46,14.72-3.13,18.22.21,2.2.59,3.81.68,4.16,1.76,7.24,6.06,12.01,8.74,14.51" fill="none" stroke="#ebe8dc" stroke-miterlimit="10"/>
    </g>
    <g>
      <path d="M103.15,74.12c.99-.34,1.24-2.97.44-4.93-.83-2.06-2.98-3.77-3.93-3.29-.92.46-.68,2.97,0,4.67.74,1.87,2.47,3.91,3.48,3.56Z" fill="#ebe8dc"/>
      <path d="M105.81,80.27c.62-.84-.65-3.15-2.41-4.32-1.85-1.23-4.59-1.43-5.1-.51-.5.9,1.12,2.83,2.63,3.85,1.67,1.12,4.24,1.83,4.88.97Z" fill="#ebe8dc"/>
      <path d="M105.26,79.16c.99.34,2.8-1.58,3.38-3.62.6-2.14-.04-4.81-1.08-5.01-1.01-.2-2.36,1.93-2.86,3.68-.56,1.93-.44,4.6.57,4.94Z" fill="#ebe8dc"/>
      <path d="M106.35,87.87c.8-.68.09-3.22-1.35-4.76-1.52-1.62-4.13-2.45-4.85-1.67-.69.76.43,3.02,1.67,4.36,1.36,1.48,3.71,2.76,4.52,2.07Z" fill="#ebe8dc"/>
      <path d="M106.39,86.84c.85.62,3.15-.68,4.3-2.45,1.21-1.86,1.39-4.6.46-5.1-.9-.49-2.82,1.14-3.83,2.67-1.11,1.68-1.79,4.26-.93,4.89Z" fill="#ebe8dc"/>
      <path d="M104.43,94.49c.45.94,3.09.89,4.95-.13,1.95-1.07,3.4-3.4,2.82-4.28-.56-.86-3.03-.33-4.64.54-1.77.95-3.59,2.91-3.13,3.87Z" fill="#ebe8dc"/>
      <path d="M101.84,101.57c.17,1.03,2.71,1.73,4.78,1.28,2.17-.47,4.22-2.29,3.92-3.3-.3-.98-2.81-1.18-4.6-.8-1.97.41-4.27,1.77-4.1,2.82Z" fill="#ebe8dc"/>
      <path d="M97.35,107.3c.09,1.04,2.57,1.94,4.66,1.66,2.2-.29,4.39-1.95,4.17-2.98-.22-1-2.71-1.4-4.52-1.16-1.99.25-4.4,1.42-4.31,2.48Z" fill="#ebe8dc"/>
      <path d="M97.92,108.12c1.04-.07,1.98-2.53,1.74-4.63-.26-2.21-1.87-4.43-2.91-4.22-1.01.2-1.44,2.68-1.24,4.5.22,2,1.35,4.42,2.41,4.35Z" fill="#ebe8dc"/>
      <path d="M103.43,102.58c.96-.41,1.04-3.04.12-4.95-.97-2-3.22-3.57-4.13-3.03-.89.52-.48,3.01.31,4.66.86,1.82,2.72,3.73,3.71,3.32Z" fill="#ebe8dc"/>
      <path d="M105.56,95.25c.86-.6.38-3.2-.92-4.86-1.37-1.75-3.9-2.81-4.68-2.1-.76.69.16,3.04,1.27,4.49,1.23,1.59,3.45,3.08,4.32,2.47Z" fill="#ebe8dc"/>
      <path d="M102.85,72.12c3.51,8.23,3.46,14.72,3.13,18.22-.21,2.2-.59,3.81-.68,4.16-1.76,7.24-6.06,12.01-8.74,14.51" fill="none" stroke="#ebe8dc" stroke-miterlimit="10"/>
    </g>
    <rect x="74.94" y="121.64" width="8.22" height="8.22" rx="1.05" ry="1.05" transform="translate(112.07 -19.06) rotate(45)" fill="#ff0019"/>
  </g>
</svg>