<?xml version="1.0" encoding="UTF-8"?>
<svg id="Layer_2" data-name="Layer 2" xmlns="http://www.w3.org/2000/svg" viewBox="0 0 158.96 156.89">
  <g id="Layer_3" data-name="Layer 3">
    <ellipse cx="79.48" cy="78.44" rx="77.48" ry="76.44" fill="none" stroke="#fff" stroke-miterlimit="10" stroke-width="4"/>
    <line x1="13.49" y1="118.52" x2="79.48" y2="2" fill="none" stroke="#fff" stroke-miterlimit="10" stroke-width="4"/>
    <line x1="146.6" y1="118.52" x2="79.48" y2="2" fill="none" stroke="#fff" stroke-miterlimit="10" stroke-width="4"/>
    <line x1="14.54" y1="116.67" x2="41.71" y2="116.33" fill="none" stroke="#fff" stroke-miterlimit="10" stroke-width="4"/>
    <line x1="146.6" y1="116.33" x2="117.86" y2="116.33" fill="none" stroke="#fff" stroke-miterlimit="10" stroke-width="4"/>
    <line x1="44.72" y1="146.77" x2="30.46" y2="21.84" fill="none" stroke="#fff" stroke-miterlimit="10" stroke-width="4"/>
    <line x1="154.6" y1="70.1" x2="28.97" y2="21.84" fill="none" stroke="#fff" stroke-miterlimit="10" stroke-width="4"/>
    <line x1="2" y1="70.1" x2="129.42" y2="21.84" fill="none" stroke="#fff" stroke-miterlimit="10" stroke-width="4"/>
    <line x1="43.23" y1="133.77" x2="4.02" y2="69.34" fill="none" stroke="#fff" stroke-miterlimit="10" stroke-width="4"/>
    <line x1="115.19" y1="144.47" x2="156.13" y2="67.22" fill="none" stroke="#fff" stroke-miterlimit="10" stroke-width="4"/>
    <line x1="129.42" y1="21.84" x2="115.19" y2="144.47" fill="none" stroke="#fff" stroke-miterlimit="10" stroke-width="4"/>
    <rect x="77.49" y="135.98" width="5.41" height="5.41" rx=".52" ry=".52" transform="translate(121.56 -16.09) rotate(45)" fill="#dd3031"/>
    <rect x="77.01" y="55.7" width="5.41" height="5.41" rx=".52" ry=".52" transform="translate(64.65 -39.26) rotate(45)" fill="#dd3031"/>
    <path d="M79.64,103.74l-14.89-14.89c-.82-.74-4.17-3.94-4.5-9.06-.06-.87-.47-7.38,4.5-10.52,4.58-2.88,9.74-.41,10.02-.27,3,1.5,4.41,4.03,4.87,4.97.49-1.02,1.75-3.24,4.34-4.69,3.48-1.95,8.13-1.79,11.53.76,4.57,3.43,4.2,9.16,4.15,9.76-.29,3.51-2.26,5.89-5.13,9.06-3.56,3.94-8.51,9.09-14.89,14.89Z" fill="#dd3031"/>
    <path d="M48.73,82.08l-.16,19.77s0,.04,0,.06c.05.37.51,3.81,1.09,4.95.61,1.2,11.24,12.02,11.85,12.8.61.78.96,1.67,1.11,2.52.12.71.04,5.18.01,6.68,0,.27.21.49.48.49h11.75c.27,0,.48-.22.48-.48v-11.89s0-.05,0-.07c-.05-.32-.45-2.65-2.01-4.59-1.62-2.01-3.91-4.78-4.08-4.99,0-.01-.02-.02-.03-.03l-10.47-10.42c-.2-.2-.52-.18-.7.03l-1.65,1.91c-.14.16-.16.4-.04.58l3.28,5.03c.63.93,1.87,2.87,2.05,4.11.03.22.1.67-.12.8-.25.15-.7-.18-.75-.22-2.67-3.16-4.64-5.49-5.64-6.5-.36-.37-1.36-1.33-1.68-2.83-.02-.08-.03-.14-.03-.18v-14.66c0-.15-.07-.29-.19-.38l-3.77-2.85c-.26.13-.51.25-.77.38Z" fill="#ebe8dc"/>
    <path d="M111.45,82.08l.16,19.77s0,.04,0,.06c-.05.37-.51,3.81-1.09,4.95-.61,1.2-11.24,12.02-11.85,12.8-.61.78-.96,1.67-1.11,2.52-.12.71-.04,5.18-.01,6.68,0,.27-.21.49-.48.49h-11.75c-.27,0-.48-.22-.48-.48v-11.89s0-.05,0-.07c.05-.32.45-2.65,2.01-4.59,1.62-2.01,3.91-4.78,4.08-4.99,0-.01.02-.02.03-.03l10.47-10.42c.2-.2.52-.18.7.03l1.65,1.91c.14.16.16.4.04.58l-3.28,5.03c-.63.93-1.87,2.87-2.05,4.11-.03.22-.1.67.12.8.25.15.7-.18.75-.22,2.67-3.16,4.64-5.49,5.64-6.5.36-.37,1.36-1.33,1.68-2.83.02-.08.03-.14.03-.18v-14.66c0-.15.07-.29.19-.38l3.77-2.85c.26.13.51.25.77.38Z" fill="#ebe8dc"/>
  </g>
</svg>