<?xml version="1.0" encoding="UTF-8"?>
<svg id="Layer_2" data-name="Layer 2" xmlns="http://www.w3.org/2000/svg" viewBox="0 0 158.96 156.89">
  <g id="Layer_3" data-name="Layer 3">
    <ellipse cx="79.48" cy="78.44" rx="77.48" ry="76.44" fill="none" stroke="#fff" stroke-miterlimit="10" stroke-width="4"/>
    <line x1="13.49" y1="118.52" x2="79.48" y2="2" fill="none" stroke="#fff" stroke-miterlimit="10" stroke-width="4"/>
    <line x1="146.6" y1="118.52" x2="79.48" y2="2" fill="none" stroke="#fff" stroke-miterlimit="10" stroke-width="4"/>
    <line x1="14.54" y1="116.67" x2="41.71" y2="116.33" fill="none" stroke="#fff" stroke-miterlimit="10" stroke-width="4"/>
    <line x1="146.6" y1="116.33" x2="117.86" y2="116.33" fill="none" stroke="#fff" stroke-miterlimit="10" stroke-width="4"/>
    <line x1="44.72" y1="146.77" x2="30.46" y2="21.84" fill="none" stroke="#fff" stroke-miterlimit="10" stroke-width="4"/>
    <line x1="154.6" y1="70.1" x2="28.97" y2="21.84" fill="none" stroke="#fff" stroke-miterlimit="10" stroke-width="4"/>
    <line x1="2" y1="70.1" x2="129.42" y2="21.84" fill="none" stroke="#fff" stroke-miterlimit="10" stroke-width="4"/>
    <line x1="43.23" y1="133.77" x2="4.02" y2="69.34" fill="none" stroke="#fff" stroke-miterlimit="10" stroke-width="4"/>
    <line x1="115.19" y1="144.47" x2="156.13" y2="67.22" fill="none" stroke="#fff" stroke-miterlimit="10" stroke-width="4"/>
    <line x1="129.42" y1="21.84" x2="114.93" y2="146.77" fill="none" stroke="#fff" stroke-miterlimit="10" stroke-width="4"/>
    <rect x="64.44" y="125.95" width="28.89" height="2.11" fill="red"/>
    <path d="M106.89,74.73h-9.39c-.77,0-1.4-.63-1.4-1.4v-1.82c0-.77-.63-1.4-1.4-1.4h-32.67c-.78,0-1.41.63-1.4,1.41v1.65c.02.78-.61,1.41-1.39,1.41h-8.19c-1.21,0-2.17,1.01-2.11,2.22.14,2.62.42,6.81.86,8.45.5,1.87,4.89,6.97,7.84,8.87,2.47,1.59,5.87,2.51,7.52,3.73.12.09.27.12.39.21.38.3,1.3,1.08,2.26,2.38,1.09,1.48,5.2,3.96,6.27,4.59.17.1.35.16.54.18,1.13.12,5.3.47,8.6-.48,3.85-1.11,7.82-7.09,8.61-7.56.94-.56,6.13-2.28,7.98-3.3s4.79-3.68,6.68-6.67c1.35-2.14,1.71-8.23,1.8-11.04.03-.79-.61-1.44-1.4-1.44ZM55.22,90.14c-2.81-2.74-3.33-5.11-3.85-6.96-.33-1.19-.42-3.51-.44-5.01-.01-.77.6-1.41,1.38-1.42l7.06-.13c.77-.01,1.41.59,1.43,1.36.06,2.52.27,7.74.88,9.35.42,1.1,1.07,2.95,1.61,4.48.39,1.11-.61,2.48-1.72,2.08-2.01-.72-4.74-2.19-6.33-3.74ZM105.88,83.55c-.52,1.85-1.3,3.81-4.11,6.56-1.57,1.53-4.16,2.71-6.13,3.44-1.11.41-2.2-.66-1.8-1.78.53-1.53,1.18-3.35,1.59-4.44.61-1.61.82-6.86.88-9.37.02-.76.64-1.37,1.4-1.37h7.33c.8,0,1.43.66,1.4,1.45-.07,1.66-.22,4.29-.56,5.51Z" fill="#ebe8dc"/>
    <path d="M78.92,77.71l1.78,5.48h5.76c.37,0,.53.48.23.7l-4.66,3.39,1.78,5.48c.12.35-.29.65-.59.43l-4.66-3.39-4.66,3.39c-.3.22-.71-.08-.59-.43l1.78-5.48-4.66-3.39c-.3-.22-.15-.7.23-.7h5.76s1.78-5.48,1.78-5.48c.12-.35.62-.35.73,0Z" fill="red"/>
    <path d="M75.5,106.9h5.94s-.13,6.23.81,8.46c.85,2,1.91,3.37,2.85,3.98s4.96,1.65,4.96,1.65l.07,2.44-23.54-.14v-2.28s4.33-.67,5.61-1.72c0,0,2.19-2.78,2.63-4.67s.65-7.72.65-7.72Z" fill="#ebe8dc"/>
  </g>
</svg>