<?xml version="1.0" encoding="UTF-8"?>
<svg id="Layer_2" data-name="Layer 2" xmlns="http://www.w3.org/2000/svg" viewBox="0 0 158.96 156.89">
  <g id="Layer_3" data-name="Layer 3">
    <ellipse cx="79.48" cy="78.44" rx="77.48" ry="76.44" fill="none" stroke="#fff" stroke-miterlimit="10" stroke-width="4"/>
    <line x1="13.49" y1="118.52" x2="79.48" y2="2" fill="none" stroke="#fff" stroke-miterlimit="10" stroke-width="4"/>
    <line x1="146.6" y1="118.52" x2="79.48" y2="2" fill="none" stroke="#fff" stroke-miterlimit="10" stroke-width="4"/>
    <line x1="14.54" y1="116.67" x2="41.71" y2="116.33" fill="none" stroke="#fff" stroke-miterlimit="10" stroke-width="4"/>
    <line x1="146.6" y1="116.33" x2="117.86" y2="116.33" fill="none" stroke="#fff" stroke-miterlimit="10" stroke-width="4"/>
    <line x1="44.72" y1="146.77" x2="30.46" y2="21.84" fill="none" stroke="#fff" stroke-miterlimit="10" stroke-width="4"/>
    <line x1="154.6" y1="70.1" x2="28.97" y2="21.84" fill="none" stroke="#fff" stroke-miterlimit="10" stroke-width="4"/>
    <line x1="2" y1="70.1" x2="129.42" y2="21.84" fill="none" stroke="#fff" stroke-miterlimit="10" stroke-width="4"/>
    <line x1="43.23" y1="133.77" x2="4.02" y2="69.34" fill="none" stroke="#fff" stroke-miterlimit="10" stroke-width="4"/>
    <line x1="115.19" y1="144.47" x2="156.13" y2="67.22" fill="none" stroke="#fff" stroke-miterlimit="10" stroke-width="4"/>
    <line x1="129.42" y1="21.84" x2="114.93" y2="146.77" fill="none" stroke="#fff" stroke-miterlimit="10" stroke-width="4"/>
    <rect x="77.69" y="103.91" width="1.48" height="35.94" fill="#e2dfd3"/>
    <path d="M56.58,61.6c-.02.25-.14,1.24-.97,2.03-.67.63-1.42.79-1.7.83.2.01,1.18.09,1.93.92.68.75.73,1.62.74,1.84-.01-.16-.07-1.16.69-1.98.8-.86,1.87-.83,2.03-.83-.14.01-1.22.07-2.03-.78-.8-.84-.71-1.88-.69-2.03Z" fill="#ebe8dc"/>
    <path d="M99.38,61.6c-.02.25-.14,1.24-.97,2.03-.67.63-1.42.79-1.7.83.2.01,1.18.09,1.93.92.68.75.73,1.62.74,1.84-.01-.16-.07-1.16.69-1.98.8-.86,1.87-.83,2.03-.83-.14.01-1.22.07-2.03-.78-.8-.84-.71-1.88-.69-2.03Z" fill="#ebe8dc"/>
    <path d="M103.65,97.2c-.02.28-.15,1.35-1.06,2.22-.73.69-1.55.86-1.86.91.22.01,1.29.1,2.12,1.01.75.82.8,1.77.81,2.02-.01-.18-.08-1.27.76-2.17.88-.94,2.05-.91,2.22-.9-.16.01-1.33.07-2.22-.86-.87-.91-.77-2.06-.76-2.22Z" fill="#ebe8dc"/>
    <path d="M54.51,97.2c-.02.28-.15,1.35-1.06,2.22-.73.69-1.55.86-1.86.91.22.01,1.29.1,2.12,1.01.75.82.8,1.77.81,2.02-.01-.18-.08-1.27.76-2.17.88-.94,2.05-.91,2.22-.9-.16.01-1.33.07-2.22-.86-.87-.91-.77-2.06-.76-2.22Z" fill="#ebe8dc"/>
    <polyline points="86.74 78.44 86.74 73.96 78.68 58.74 71.07 73.07 71.07 78.44 62.74 76.18 78.5 55.96 94.11 75.79 87.57 78.44" fill="red"/>
    <path d="M78.92,68.4s-.17.24-.44.65c-.98,1.46-3.25,5.08-3.48,7.51-.3,3.11,3.55,9.04,3.55,9.04,0,0,3.85-5.64,3.85-8.6s-3.49-8.6-3.49-8.6Z" fill="red"/>
    <path d="M80.48,100.28s-1.04-9.21,1.93-13.21,12.74-7.85,12.74-7.85c0,0,.78,11.41-2.06,15.26s-12.61,5.8-12.61,5.8Z" fill="red"/>
    <path d="M77.2,99.4s-1.31-10.85-3.53-13.81-11.48-6.37-11.48-6.37c0,0-.47,11.11,2.76,15.26s12.25,4.92,12.25,4.92Z" fill="red"/>
    <path d="M78.92,124.25l2.97-3.63s0-5.04,3.41-8.67,9.95-3.63,9.95-3.63c0,0,1.24,7.19-2.47,11.11s-9.44,4.27-9.44,4.27l5.07-6.87,3.63-4.59s-.28-.12-.72-.16-.61-.14-.61-.14l-12.28,15.04.49-2.74Z" fill="#e2dfd3"/>
    <path d="M77.55,121.21l-2.86-3.83s.42-2.92-2.64-5.86-9.67-4.47-9.67-4.47c0,0,.75,7.42,3.42,9.75s6.78,2.5,7.69,2.64c.92.14,4.17,2.92,4.17,2.92l.47-.97-.58-.17ZM73.02,117.66s-1.97-.45-4.06-2.09c-2.08-1.64-2.36-4.61-2.36-4.61,0,0,2.81,1.11,4.42,2.78,1.61,1.67,2,3.81,2,3.81v.12Z" fill="#e2dfd3"/>
  </g>
</svg>