<?xml version="1.0" encoding="UTF-8"?>
<svg id="Layer_2" data-name="Layer 2" xmlns="http://www.w3.org/2000/svg" viewBox="0 0 158.96 156.89">
  <g id="Layer_3" data-name="Layer 3">
    <ellipse cx="79.48" cy="78.44" rx="77.48" ry="76.44" fill="none" stroke="#fff" stroke-miterlimit="10" stroke-width="4"/>
    <line x1="13.49" y1="118.52" x2="79.48" y2="2" fill="none" stroke="#fff" stroke-miterlimit="10" stroke-width="4"/>
    <line x1="146.6" y1="118.52" x2="79.48" y2="2" fill="none" stroke="#fff" stroke-miterlimit="10" stroke-width="4"/>
    <line x1="14.54" y1="116.67" x2="41.71" y2="116.33" fill="none" stroke="#fff" stroke-miterlimit="10" stroke-width="4"/>
    <line x1="146.6" y1="116.33" x2="117.86" y2="116.33" fill="none" stroke="#fff" stroke-miterlimit="10" stroke-width="4"/>
    <line x1="44.72" y1="146.77" x2="30.46" y2="21.84" fill="none" stroke="#fff" stroke-miterlimit="10" stroke-width="4"/>
    <line x1="154.6" y1="70.1" x2="28.97" y2="21.84" fill="none" stroke="#fff" stroke-miterlimit="10" stroke-width="4"/>
    <line x1="2" y1="70.1" x2="129.42" y2="21.84" fill="none" stroke="#fff" stroke-miterlimit="10" stroke-width="4"/>
    <line x1="43.23" y1="133.77" x2="4.02" y2="69.34" fill="none" stroke="#fff" stroke-miterlimit="10" stroke-width="4"/>
    <line x1="115.19" y1="144.47" x2="156.13" y2="67.22" fill="none" stroke="#fff" stroke-miterlimit="10" stroke-width="4"/>
    <line x1="129.42" y1="21.84" x2="114.93" y2="146.77" fill="none" stroke="#fff" stroke-miterlimit="10" stroke-width="4"/>
    <circle cx="77.94" cy="89.95" r="9.63" fill="none" stroke="#ff0019" stroke-miterlimit="10" stroke-width="5"/>
    <rect x="76.99" y="53.43" width="1.48" height="13.63" fill="#e2dfd3"/>
    <rect x="77.2" y="110.97" width="1.48" height="13.63" fill="#e2dfd3"/>
    <rect x="89.94" y="57.35" width=".77" height="11.94" transform="translate(33.24 -31.07) rotate(23.8)" fill="#e2dfd3" stroke="#ebe8dc" stroke-miterlimit="10" stroke-width=".5"/>
    <rect x="64.56" y="110.06" width=".77" height="11.94" transform="translate(52.36 -16.34) rotate(23.8)" fill="#e2dfd3" stroke="#ebe8dc" stroke-miterlimit="10" stroke-width=".5"/>
    <rect x="89.94" y="110.37" width=".77" height="11.94" transform="translate(219.93 186.32) rotate(156.2)" fill="#e2dfd3" stroke="#ebe8dc" stroke-miterlimit="10" stroke-width=".5"/>
    <rect x="101.78" y="104.09" width=".77" height="11.94" transform="translate(251.65 124.32) rotate(138.32)" fill="#e2dfd3" stroke="#ebe8dc" stroke-miterlimit="10" stroke-width=".5"/>
    <rect x="64.56" y="57.35" width=".77" height="11.94" transform="translate(149.93 95.04) rotate(156.2)" fill="#e2dfd3" stroke="#ebe8dc" stroke-miterlimit="10" stroke-width=".5"/>
    <rect x="53.11" y="65.31" width=".77" height="10.59" transform="translate(140.41 87.76) rotate(138.32)" fill="#e2dfd3" stroke="#ebe8dc" stroke-miterlimit="10" stroke-width=".5"/>
    <rect x="101.54" y="65.31" width=".77" height="10.59" transform="translate(124.07 192.6) rotate(-135)" fill="#e2dfd3" stroke="#ebe8dc" stroke-miterlimit="10" stroke-width=".5"/>
    <rect x="52.73" y="104.63" width=".77" height="10.59" transform="translate(12.94 225.21) rotate(-135)" fill="#e2dfd3" stroke="#ebe8dc" stroke-miterlimit="10" stroke-width=".5"/>
    <path d="M95.61,79.28c-5.2-3.31-11.9-5.22-17.59-5.22s-12.24,2.17-17.42,5.44-12.1,10.34-12.1,10.34c-.2.52,4.73,6.98,11.16,10.77s15.04,5.25,18.28,5.19c5.12-.09,12.87-2.02,18.01-5.12,4.68-2.82,11.43-10.84,11.43-10.84,0,0-6.32-7.08-11.78-10.56ZM79.5,103.45c-8.9,1.12-16.39-6.37-15.27-15.27.76-6.07,5.66-10.97,11.73-11.73,8.9-1.12,16.39,6.37,15.27,15.27-.76,6.07-5.66,10.97-11.73,11.73Z" fill="#e2dfd3"/>
    <circle cx="82.53" cy="85.11" r="1.31" fill="#ebe8dc"/>
  </g>
</svg>