<?xml version="1.0" encoding="UTF-8"?>
<svg id="Layer_2" data-name="Layer 2" xmlns="http://www.w3.org/2000/svg" viewBox="0 0 158.96 156.89">
  <g id="Layer_3" data-name="Layer 3">
    <ellipse cx="79.48" cy="78.44" rx="77.48" ry="76.44" fill="none" stroke="#fff" stroke-miterlimit="10" stroke-width="4"/>
    <path d="M42.82,121.9l8.22-8.3s1.04,2.37-1.41,3.41,1.63.22,1.63.22c0,0-.29,1.41-1.33,2.3s2.22.3,3.56-1.78,1.85-6.34,1.85-8.59c0-1.35,1.25-.85,3.33.96s3.56,3.93,3.56,3.93l-6.52,8.44.41,2.37,7.44-9.48,10.15,10.22h2.15l-10.81-11.48,5.56-6.81s1.48,1.48,1.85,4.07-.22,5.29-.22,5.29l4.22-4.7s-1.41-.07-1.04-1.56,3.48-4.81,3.63-6.44.44-7.11.44-7.11l.8-.52,15.28,17.26-16.59,16.89s-.11,1.04.98,1.11,16.72-16.44,16.72-16.44l6.81,9.63,1.93-.07-3.93-6.19s1.41-.4,1.93-2.77-.22-4.22-.22-4.22c0,0-.96,1.85-2.3,2.44s-1.85,1.56-1.85,1.56l-1.41-1.56,6.22-6.15,18.89,19.41.81-1.85-19.63-19.93-7.04,6.81-16.61-18.52-16.65,18.52-7.19-6.42-15.41,14.94,1.78,1.11Z" fill="#ebe8dc"/>
    <line x1="13.49" y1="118.52" x2="79.48" y2="2" fill="none" stroke="#fff" stroke-miterlimit="10" stroke-width="4"/>
    <line x1="146.6" y1="118.52" x2="79.48" y2="2" fill="none" stroke="#fff" stroke-miterlimit="10" stroke-width="4"/>
    <line x1="14.54" y1="116.67" x2="41.71" y2="116.33" fill="none" stroke="#fff" stroke-miterlimit="10" stroke-width="4"/>
    <line x1="146.6" y1="116.33" x2="117.86" y2="116.33" fill="none" stroke="#fff" stroke-miterlimit="10" stroke-width="4"/>
    <line x1="44.72" y1="146.77" x2="30.46" y2="21.84" fill="none" stroke="#fff" stroke-miterlimit="10" stroke-width="4"/>
    <line x1="154.6" y1="70.1" x2="28.97" y2="21.84" fill="none" stroke="#fff" stroke-miterlimit="10" stroke-width="4"/>
    <line x1="2" y1="70.1" x2="129.42" y2="21.84" fill="none" stroke="#fff" stroke-miterlimit="10" stroke-width="4"/>
    <line x1="43.23" y1="133.77" x2="4.02" y2="69.34" fill="none" stroke="#fff" stroke-miterlimit="10" stroke-width="4"/>
    <line x1="115.19" y1="144.47" x2="156.13" y2="67.22" fill="none" stroke="#fff" stroke-miterlimit="10" stroke-width="4"/>
    <line x1="129.42" y1="21.84" x2="115.19" y2="144.47" fill="none" stroke="#fff" stroke-miterlimit="10" stroke-width="4"/>
    <path d="M72.85,94.81l4.05-3.74c.06-.06.08-.15.05-.23l-2.06-4.44c-.03-.06-.02-.13,0-.18l4.89-8.39c.08-.13.27-.13.35,0l4.73,8.34s.03.11.02.16l-1.49,4.53c-.02.07,0,.14.04.19l3.64,4.27c.09.1.24.09.32-.02l8.57-13.02c.04-.06.04-.13.02-.19l-5.28-12.21c-.11-.25-.44-.29-.6-.08l-2.99,3.87c-.11.14-.34.08-.36-.1l-.62-6.79s-.01-.06-.03-.08l-5.96-10.52c-.08-.14-.28-.13-.35.01l-6.43,13.11s-.01.03-.02.05l-.58,3.13c-.03.17-.26.22-.36.08l-2.21-3.19c-.22-.32-.7-.26-.84.1l-4.75,12.16c-.02.06-.02.12.02.18l7.93,12.95c.07.11.21.13.31.04Z" fill="#ff0019"/>
  </g>
</svg>