<?xml version="1.0" encoding="UTF-8"?>
<svg id="Layer_2" data-name="Layer 2" xmlns="http://www.w3.org/2000/svg" viewBox="0 0 158.96 156.89">
  <g id="Layer_2-2" data-name="Layer 2">
    <ellipse cx="79.48" cy="78.44" rx="77.48" ry="76.44" fill="none" stroke="#fff" stroke-miterlimit="10" stroke-width="4"/>
    <line x1="13.49" y1="118.52" x2="79.48" y2="2" fill="none" stroke="#fff" stroke-miterlimit="10" stroke-width="4"/>
    <line x1="146.6" y1="118.52" x2="79.48" y2="2" fill="none" stroke="#fff" stroke-miterlimit="10" stroke-width="4"/>
    <line x1="14.54" y1="116.67" x2="41.71" y2="116.33" fill="none" stroke="#fff" stroke-miterlimit="10" stroke-width="4"/>
    <line x1="146.6" y1="116.33" x2="117.86" y2="116.33" fill="none" stroke="#fff" stroke-miterlimit="10" stroke-width="4"/>
    <line x1="44.72" y1="146.77" x2="30.46" y2="21.84" fill="none" stroke="#fff" stroke-miterlimit="10" stroke-width="4"/>
    <line x1="154.6" y1="70.1" x2="28.97" y2="21.84" fill="none" stroke="#fff" stroke-miterlimit="10" stroke-width="4"/>
    <line x1="2" y1="70.1" x2="129.42" y2="21.84" fill="none" stroke="#fff" stroke-miterlimit="10" stroke-width="4"/>
    <line x1="43.23" y1="133.77" x2="4.02" y2="69.34" fill="none" stroke="#fff" stroke-miterlimit="10" stroke-width="4"/>
    <line x1="115.19" y1="144.47" x2="156.13" y2="67.22" fill="none" stroke="#fff" stroke-miterlimit="10" stroke-width="4"/>
    <line x1="129.42" y1="21.84" x2="115.19" y2="144.47" fill="none" stroke="#fff" stroke-miterlimit="10" stroke-width="4"/>
    <circle cx="79.48" cy="82.33" r="13.45" fill="#ff0019"/>
    <circle cx="104.06" cy="82.05" r="1.83" fill="#ff0019"/>
    <path d="M56.12,82.05c0,1.01-.82,1.83-1.83,1.83s-1.83-.82-1.83-1.83.82-1.83,1.83-1.83,1.83.82,1.83,1.83Z" fill="#ff0019"/>
    <path d="M49.66,104.43c2.21-1.08,5.53-2.32,9.67-2.49,9.33-.38,11.28,7.58,19.22,7.82,8.34.25,10.87-7.83,20.59-7.84,4.75,0,8.62,1.92,11.11,3.51" fill="none" stroke="#ebe8dc" stroke-miterlimit="10" stroke-width="2"/>
    <path d="M49.19,115.94c2.21-1.08,5.53-2.32,9.67-2.49,9.33-.38,11.28,7.58,19.22,7.82,8.34.25,10.87-7.83,20.59-7.84,4.75,0,8.62,1.92,11.11,3.51" fill="none" stroke="#ebe8dc" stroke-miterlimit="10" stroke-width="2"/>
    <path d="M50.39,122.7c2.06-.59,3.93-.94,8.07-1.11,9.33-.38,12.06,10.72,20,10.96,8.34.25,12.13-10.66,21.85-10.67,4.75,0,5.2.22,7.56.81" fill="none" stroke="#ebe8dc" stroke-miterlimit="10" stroke-width="2"/>
  </g>
</svg>